<svg xmlns="http://www.w3.org/2000/svg" width="24" height="24" viewBox="0 0 24 24">
  <g fill="none" fill-rule="evenodd">
    <polygon points="0 0 24 0 24 24 0 24"/>
    <path fill="#757575" fill-rule="nonzero" d="M7,18 L20,18 C20.5522847,18 21,17.5522847 21,17 L21,17 C21,16.4477153 20.5522847,16 20,16 L7,16 C6.44771525,16 6,16.4477153 6,17 L6,17 C6,17.5522847 6.44771525,18 7,18 Z M12,13 L20,13 C20.5522847,13 21,12.5522847 21,12 L21,12 C21,11.4477153 20.5522847,11 20,11 L12,11 C11.4477153,11 11,11.4477153 11,12 L11,12 C11,12.5522847 11.4477153,13 12,13 Z M6,7 L6,7 C6,7.55228475 6.44771525,8 7,8 L20,8 C20.5522847,8 21,7.55228475 21,7 L21,7 C21,6.44771525 20.5522847,6 20,6 L7,6 C6.44771525,6 6,6.44771525 6,7 Z"/>
  </g>
</svg>
