<svg xmlns="http://www.w3.org/2000/svg" width="64" height="64" viewBox="0 0 64 64">
  <g fill="none" fill-rule="evenodd">
    <rect width="64" height="64"/>
    <path fill="#FFF" d="M31.125,50.8312347 L30.7910817,51.0093651 C27.6835607,55.5851621 24.1899396,58.1291741 20.3102184,58.6414013 C20.2604626,55.7629263 21.0425155,53.0039465 22.656377,50.3644616 C16.2609206,51.7146525 10.0421282,50.3759489 4,46.3483507 C8.50547479,43.0271079 14.0970238,41.6429265 20.774647,42.1958066 C11.7783413,37.8476162 6.18679227,30.6698826 4,20.6626058 C13.6613585,22.4193557 21.0394365,27.0263448 26.1342339,34.4835733 C22.423978,23.5160498 24.3792334,13.3548587 32,4 C39.6207666,13.3548587 41.576022,23.5160498 37.8657661,34.4835733 C42.9605635,27.0263448 50.3386415,22.4193557 60,20.6626058 C57.8132077,30.6698826 52.2216587,37.8476162 43.225353,42.1958066 C49.9029762,41.6429265 55.4945252,43.0271079 60,46.3483507 C53.9578718,50.3759489 47.7390794,51.7146525 41.343623,50.3644616 C42.9574845,53.0039465 43.7395374,55.7629263 43.6897816,58.6414013 C39.8100604,58.1291741 36.3164393,55.5851621 33.2089183,51.0093651 L32.8750398,50.831256 L32.8750398,59.125 C32.8750398,59.6082492 32.4832889,60 32.0000398,60 L32,60 C31.5167508,60 31.125,59.6082492 31.125,59.125 L31.125,50.8312347 Z"/>
  </g>
</svg>
