<svg xmlns="http://www.w3.org/2000/svg" width="64" height="64" viewBox="0 0 64 64">
  <g fill="none" fill-rule="evenodd">
    <rect width="64" height="64"/>
    <path fill="#FFF" fill-rule="nonzero" d="M14.5975058,16.7489362 L24.8274854,16.7489362 L24.8274854,26.9162723 L14.5975058,26.9162723 L14.5975058,16.7489362 Z M27.3849503,16.7489362 L37.6149298,16.7489362 L37.6149298,26.9162723 L27.3849503,26.9162723 L27.3849503,16.7489362 Z M27.3849503,29.4581957 L37.6149298,29.4581957 L37.6149298,34.7530553 C34.5712193,36.0267574 31.8074357,37.4518979 30.069731,38.9405447 C29.5017251,38.4229617 28.6518743,37.7911149 27.3848304,37.0204596 L27.3848304,29.4581957 L27.3849503,29.4581957 Z M52.9600789,32.3723404 L52.9600789,35.9565787 C47.0977982,37.1043404 37.9177544,45.3482553 34.2882953,48.7949957 L31.4130205,41.1729191 C34.8197368,37.7508426 46.8260234,34.0098043 52.9600789,32.3723404 Z M40.1725146,33.7435064 L40.1725146,29.4581957 L50.4024942,29.4581957 L50.4024942,30.4350979 C47.6991316,31.1918128 43.8900877,32.3436255 40.1725146,33.7435064 Z M40.1725146,16.7489362 L50.4024942,16.7489362 L50.4024942,26.9162723 L40.1725146,26.9162723 L40.1725146,16.7489362 Z M27.3849503,4.0396766 L37.6149298,4.0396766 L37.6149298,14.2070128 L27.3849503,14.2070128 L27.3849503,4.0396766 Z M16.5038888,4.0396766 L24.8274854,4.0396766 L24.8274854,14.2070128 L14.5975058,14.2070128 L14.5975058,5.94605957 C14.5975058,4.89319333 15.4510226,4.0396766 16.5038888,4.0396766 Z M14.5975058,29.4581957 L24.8274854,29.4581957 L24.8274854,35.5867404 C22.4322222,34.3285277 19.1283655,32.7903149 14.5975058,30.9143149 L14.5975058,29.4581957 Z M28.1833713,40.4318128 L21.4357544,44.2636426 C19.9337398,41.9308255 16.2405029,36.9102468 12.0399211,36.001617 L12.0399211,32.616834 C18.9815088,35.4592511 26.223883,38.9008681 28.1833713,40.4318128 Z M50.4024942,59.9603234 L14.5975058,59.9603234 C13.1876813,59.9603234 12.0400409,58.8197106 12.0400409,57.4185191 L12.0400409,38.5988255 C15.2891111,39.7146553 18.7124912,44.5834383 19.8811111,46.6106383 C20.2308099,47.2212766 21.0112485,47.4334809 21.6256491,47.0835404 L29.2732281,42.7408 L32.5812807,51.5106383 C32.733652,51.9152681 33.0833509,52.2143319 33.5078567,52.3061957 C33.597769,52.324783 33.6888801,52.3347915 33.7787924,52.3347915 C34.1147047,52.3347915 34.4406667,52.2032511 34.6829503,51.9624511 C38.1865322,48.4813957 47.7120789,39.9100596 52.9600789,38.5555745 L52.9600789,57.4185191 C52.9600789,58.8197106 51.8124386,59.9603234 50.4024942,59.9603234 Z"/>
  </g>
</svg>
