<svg xmlns="http://www.w3.org/2000/svg" width="64" height="64" viewBox="0 0 64 64">
  <g fill="none" fill-rule="evenodd">
    <rect width="64" height="64"/>
    <path fill="#FFF" fill-rule="nonzero" d="M32,48.6953819 C31.5867315,48.6953819 31.1734631,48.7944623 30.7969908,48.9926232 L19.969407,54.6966458 C18.0730279,55.6959785 15.8562468,54.0815946 16.2187015,51.9655377 L18.2862954,39.8832439 C18.4304763,39.0434432 18.1521271,38.1855823 17.5433634,37.5905981 L8.78337349,29.0340625 C7.2494491,27.5350634 8.09551053,24.9243569 10.216171,24.6163296 L22.3223589,22.8534505 C23.1644153,22.7310423 23.8923285,22.2012755 24.2688008,21.4367258 L29.6825927,10.4440659 C30.1562511,9.48122458 31.0780934,8.99986929 32,9.00000003 L32,48.6953819 Z"/>
    <path fill="#FFF" fill-rule="nonzero" d="M56,48.6953819 C55.5867315,48.6953819 55.1734631,48.7944623 54.7969908,48.9926232 L43.969407,54.6966458 C42.0730279,55.6959785 39.8562468,54.0815946 40.2187015,51.9655377 L42.2862954,39.8832439 C42.4304763,39.0434432 42.1521271,38.1855823 41.5433634,37.5905981 L32.7833735,29.0340625 C31.2494491,27.5350634 32.0955105,24.9243569 34.216171,24.6163296 L46.3223589,22.8534505 C47.1644153,22.7310423 47.8923285,22.2012755 48.2688008,21.4367258 L53.6825927,10.4440659 C54.1562511,9.48122458 55.0780934,8.99986929 56,9.00000003 L56,48.6953819 Z" opacity=".5" transform="matrix(-1 0 0 1 88 0)"/>
  </g>
</svg>
