<svg xmlns="http://www.w3.org/2000/svg" width="64" height="64" viewBox="0 0 64 64">
  <g fill="none" fill-rule="evenodd">
    <rect width="64" height="64"/>
    <path fill="#FFF" d="M15.8096258,30.2571421 C15.0234915,30.1852838 14.2426498,30.0420808 13.4776107,29.827533 C11.9482802,29.5521161 10.4445388,29.0958057 9,28.4586016 C9,28.1752436 9.03407581,27.8998445 9.09835312,27.6362784 C8.64968827,27.2920166 8.21832774,26.9145278 7.80761184,26.5038119 C2.73079605,21.4269961 2.73079605,13.1958513 7.80761184,8.11903555 C7.93297266,7.99367473 8.08333642,7.90855555 8.24265092,7.86367799 L8.16432859,7.57137508 C8.0703874,7.22078177 8.06673537,7.08516163 8.09147905,6.93674226 C8.11622272,6.78832288 8.17703077,6.65572415 8.27335907,6.54013255 C8.36968737,6.42454095 8.47484397,6.33881901 8.80182037,6.18125301 L11.0654687,5.09042804 C11.5182214,4.87225195 12.0621166,5.06241385 12.2802927,5.51516653 C12.3049685,5.56637303 12.3247922,5.61977889 12.339504,5.67468394 L13.1018901,8.51994768 C13.2319671,9.00540185 12.9438771,9.5043885 12.4584229,9.63446555 C12.4035179,9.64917731 12.3473552,9.65871239 12.2906711,9.66294577 L9.78488169,9.8500878 C9.42292882,9.87711983 9.28899956,9.85546077 9.14778101,9.80351965 C9.10204564,9.78669788 9.05864482,9.76646847 9.01761472,9.74285709 C4.92717243,14.0526644 4.99524266,20.8630156 9.22182541,25.0895983 C9.51245369,25.3802266 9.81529858,25.6511925 10.1287071,25.9024962 C10.7434121,25.3418712 11.5610827,25 12.4586016,25 L21.5414343,25 C22.4389439,25 23.256606,25.3418676 23.8713046,25.9024868 C24.184709,25.6511858 24.4875499,25.380223 24.7781746,25.0895983 C26.7673386,23.1004343 27.8887363,20.4814993 27.992196,17.7271146 C28.1047537,14.7305153 27.0051836,11.8135945 24.8731983,9.62942822 C24.7921227,9.70595517 24.697759,9.76409576 24.5905725,9.80351965 C24.4493539,9.85546077 24.3154247,9.87711983 23.9534718,9.8500878 L21.4476824,9.66294577 C21.3909983,9.65871239 21.3348356,9.64917731 21.2799306,9.63446555 C20.7944764,9.5043885 20.5063864,9.00540185 20.6364634,8.51994768 L21.3988495,5.67468394 C21.4135613,5.61977889 21.433385,5.56637303 21.4580608,5.51516653 C21.6762369,5.06241385 22.2201321,4.87225195 22.6728848,5.09042804 L24.9365331,6.18125301 C25.2635095,6.33881901 25.3686661,6.42454095 25.4649944,6.54013255 C25.5613227,6.65572415 25.6221308,6.78832288 25.6468745,6.93674226 C25.6716181,7.08516163 25.6679661,7.22078177 25.5740249,7.57137508 L25.5057047,7.82634961 C25.7547771,7.83140587 26.0023205,7.92896785 26.1923882,8.11903555 C28.7843444,10.7109918 30.1256811,14.2109185 29.9907866,17.8021853 C29.8685735,21.0558362 28.5418075,24.1543925 26.1923882,26.5038119 C25.7816742,26.9145258 25.3503159,27.292013 24.9016534,27.6362735 C24.9659265,27.8998299 25,28.1752187 25,28.4585657 C23.555508,29.0957569 22.0518163,29.5520657 20.5225355,29.827492 C19.6340592,30.0766677 18.7242686,30.2296183 17.8096258,30.2863437 L17.8096258,30.6372397 C22.6331364,36.4798462 23.6982481,42.1450892 20.8752636,47.468498 C19.2918548,50.454392 21.3312178,54.4902587 25.6238895,57.1328074 C30.2005073,59.950152 35.5802539,60.1398878 39.3748589,57.1006464 C45.1313191,52.4900816 48.7835402,44.4102473 50.2811019,32.814889 C46.6889186,32.0283925 44,28.8282116 44,25 C44,20.581722 47.581722,17 52,17 C56.418278,17 60,20.581722 60,25 C60,29.3264534 56.565608,32.8507617 52.274365,32.9953835 C50.7225052,45.0999105 46.8563502,53.670861 40.6251411,58.6616699 C36.1027811,62.2837976 29.8160696,62.0620744 24.5754343,58.8359638 C19.4917563,55.7064753 16.9306389,50.6380651 19.1083345,46.531502 C21.5568397,41.914263 20.581418,37.0098328 16.045994,31.645652 L15.8096258,31 L15.8096258,30.2571421 Z"/>
  </g>
</svg>
