<svg xmlns="http://www.w3.org/2000/svg" width="64" height="64" viewBox="0 0 64 64">
  <g fill="none" fill-rule="evenodd">
    <rect width="64" height="64"/>
    <path fill="#1DC79C" d="M49.9033226,34.097664 L48.0933884,35.6163792 C48.0233304,36.0813837 47.7899282,36.5237162 47.4013727,36.849753 C47.0128171,37.1757898 46.5366747,37.3288359 46.0665693,37.3170823 L44.4838538,38.6451384 L50.4,46.5333333 C53.0509668,50.0679557 52.3346224,55.0823665 48.8,57.7333333 C47.4152306,58.7719104 45.7309617,59.3333333 44,59.3333333 L20,59.3333333 C15.581722,59.3333333 12,55.7516113 12,51.3333333 C12,49.6023716 12.561423,47.9181027 13.6,46.5333333 L25.6,30.5333333 C25.72797,30.3627067 25.8614474,30.1986475 26,30.0412173 L26,8.38000488 L38,8.38000488 L38,30.0418306 C38.1396311,30.2001573 38.2730815,30.3641086 38.4,30.5333333 L42.6811644,36.2415525 L44.1382065,35.018949 C44.2082644,34.5539446 44.4416667,34.111612 44.8302222,33.7855752 C45.2187778,33.4595384 45.6949201,33.3064923 46.1650256,33.3182459 L47.7209294,32.0126875 L48.4494346,29.0848546 C48.4782848,28.9689067 48.5251394,28.8582002 48.5882908,28.7567697 C48.9218887,28.2209619 49.6266813,28.0570384 50.162489,28.3906363 L50.1624996,28.3906194 C50.9170217,28.8603905 51.5707863,29.4248001 52.1237932,30.0838481 C52.6817248,30.7487651 53.1317884,31.5036879 53.4739838,32.3486164 C53.5191926,32.460243 53.5464736,32.5783138 53.5548173,32.6984584 C53.5985469,33.3281446 53.1235353,33.8740561 52.4938491,33.9177857 L49.9033226,34.097664 Z M17.6109581,49.1200107 C17.504552,48.4029893 16.8370321,47.9079879 16.1200107,48.014394 C15.4029893,48.1208002 14.9079879,48.7883201 15.014394,49.5053414 C15.5600413,53.1822041 17.5651824,55.5313976 20.8931096,56.3059519 C21.5991135,56.4702699 22.3046488,56.0311467 22.4689668,55.3251428 C22.6332848,54.6191389 22.1941616,53.9136036 21.4881577,53.7492856 C19.2507164,53.2285351 18.0038858,51.7677668 17.6109581,49.1200107 Z M23.75,4 L41.25,4 C42.2164983,4 43,4.78350169 43,5.75 C43,6.71649831 42.2164983,7.5 41.25,7.5 L23.75,7.5 C22.7835017,7.5 22,6.71649831 22,5.75 C22,4.78350169 22.7835017,4 23.75,4 Z"/>
  </g>
</svg>
