<svg xmlns="http://www.w3.org/2000/svg" width="64" height="64" viewBox="0 0 64 64">
  <g fill="none" fill-rule="evenodd">
    <rect width="64" height="64"/>
    <path fill="#1DC79C" fill-rule="nonzero" d="M34.3174073,10.4440659 L39.7311992,21.4367258 C40.1076715,22.2012755 40.8355847,22.7310423 41.6776411,22.8534505 L53.783829,24.6163296 C55.9044895,24.9253602 56.7505509,27.5360668 55.2166265,29.0340625 L46.4566366,37.5905981 C45.8478729,38.1855823 45.5695237,39.0434432 45.7137046,39.8832439 L47.7812985,51.9655377 C48.1437532,54.0815946 45.9269721,55.6949752 44.030593,54.6966458 L33.2030092,48.9926232 C32.4500646,48.5963015 31.5499354,48.5963015 30.7969908,48.9926232 L19.969407,54.6966458 C18.0730279,55.6959785 15.8562468,54.0815946 16.2187015,51.9655377 L18.2862954,39.8832439 C18.4304763,39.0434432 18.1521271,38.1855823 17.5433634,37.5905981 L8.78337349,29.0340625 C7.2494491,27.5350634 8.09551053,24.9243569 10.216171,24.6163296 L22.3223589,22.8534505 C23.1644153,22.7310423 23.8923285,22.2012755 24.2688008,21.4367258 L29.6825927,10.4440659 C30.629781,8.51864471 33.3692178,8.51864471 34.3174073,10.4440659 Z"/>
  </g>
</svg>
