<svg xmlns="http://www.w3.org/2000/svg" width="64" height="64" viewBox="0 0 64 64">
  <g fill="none" fill-rule="evenodd">
    <rect width="64" height="64"/>
    <path fill="#1DC79C" d="M41.25,11.2794818 C42.7204482,11.5133015 43.6722804,11.891087 44.6284399,12.4024467 C46.3395511,13.3175589 47.6824411,14.6604489 48.5975533,16.3715601 C49.5126655,18.0826712 50,19.7799239 50,24.4603973 L50,46.5396027 C50,51.2200761 49.5126655,52.9173288 48.5975533,54.6284399 C47.6824411,56.3395511 46.3395511,57.6824411 44.6284399,58.5975533 C42.9173288,59.5126655 41.2200761,60 36.5396027,60 L28.4603973,60 C23.7799239,60 22.0826712,59.5126655 20.3715601,58.5975533 C18.6604489,57.6824411 17.3175589,56.3395511 16.4024467,54.6284399 C15.4873345,52.9173288 15,51.2200761 15,46.5396027 L15,24.4603973 C15,19.7799239 15.4873345,18.0826712 16.4024467,16.3715601 C17.3175589,14.6604489 18.6604489,13.3175589 20.3715601,12.4024467 C21.3277196,11.891087 22.2795518,11.5133015 23.75,11.2794818 L23.75,8.38000488 L41.25,8.38000488 L41.25,11.2794818 Z M32.171875,42.561713 L32.171875,45.671875 C32.171875,45.8530934 32.3187816,46 32.5,46 L32.5000149,46 C32.6812333,46 32.8281399,45.8530934 32.8281399,45.671875 L32.8281399,42.561721 L32.9533444,42.6285119 C34.1186647,44.3444358 35.4287726,45.2984403 36.8836681,45.4905255 C36.9023265,44.4110974 36.6090567,43.3764799 36.0038586,42.3866731 C38.4021548,42.8929947 40.7342019,42.3909808 43,40.8806315 C41.310447,39.6351655 39.2136161,39.1160975 36.7095074,39.3234275 C40.083122,37.6928561 42.1799529,35.001206 43,31.2484772 C39.3769905,31.9072584 36.6102113,33.6348793 34.6996623,36.43134 C36.0910082,32.3185187 35.3577875,28.508072 32.5,25 C29.6422125,28.508072 28.9089918,32.3185187 30.3003377,36.43134 C28.3897887,33.6348793 25.6230095,31.9072584 22,31.2484772 C22.8200471,35.001206 24.916878,37.6928561 28.2904926,39.3234275 C25.7863839,39.1160975 23.689553,39.6351655 22,40.8806315 C24.2657981,42.3909808 26.5978452,42.8929947 28.9961414,42.3866731 C28.3909433,43.3764799 28.0976735,44.4110974 28.1163319,45.4905255 C29.5712274,45.2984403 30.8813353,44.3444358 32.0466556,42.6285119 L32.171875,42.561713 Z M19.6672429,21.0376254 C20.0601705,18.3898693 21.3070011,16.929101 23.5444424,16.4083505 C24.2504463,16.2440325 24.6895695,15.5384972 24.5252515,14.8324933 C24.3609335,14.1264894 23.6553982,13.6873662 22.9493943,13.8516842 C19.6214671,14.6262385 17.6163261,16.975432 17.0706787,20.6522947 C16.9642726,21.369316 17.459274,22.0368359 18.1762954,22.1432421 C18.8933168,22.2496482 19.5608367,21.7546468 19.6672429,21.0376254 Z M23.75,4 L41.25,4 C42.2164983,4 43,4.78350169 43,5.75 C43,6.71649831 42.2164983,7.5 41.25,7.5 L23.75,7.5 C22.7835017,7.5 22,6.71649831 22,5.75 C22,4.78350169 22.7835017,4 23.75,4 Z"/>
  </g>
</svg>
