<svg xmlns="http://www.w3.org/2000/svg" width="64" height="64" viewBox="0 0 64 64">
  <g fill="none" fill-rule="evenodd">
    <rect width="64" height="64"/>
    <path fill="#757575" d="M38.4706018,58.4927893 C38.2630982,59.3573102 37.4827728,60 36.5518515,60 L24.7148146,60 C23.7838933,60 23.0035679,59.3573102 22.7960643,58.4927893 C12.6104354,56.2683126 4.98641974,47.2229073 4.98641974,36.4025837 L4.98641974,33.4529067 L56.2802463,33.4529067 L56.2802463,36.4025837 C56.2802463,47.2229073 48.6562307,56.2683126 38.4706018,58.4927893 Z M4.2743733,31.4864553 C6.76544566,29.7620078 9.8257675,29.0495543 13.4553388,29.349095 C8.38440536,26.9060936 5.23262576,22.8733325 4,17.2508116 C9.44580274,18.2378296 13.6045923,20.8262354 16.4763688,25.0160288 C14.3850146,18.8539998 15.4871304,13.1450032 19.7827159,7.88903908 C24.0783014,13.1450032 25.1804171,18.8539998 23.089063,25.0160288 C25.9608394,20.8262354 30.119629,18.2378296 35.5654317,17.2508116 C34.332806,22.8733325 31.1810264,26.9060936 26.1100929,29.349095 C28.6145832,29.1424048 30.8480351,29.4175582 32.8104488,30.174555 C33.0046071,29.6380543 33.2489412,29.1111569 33.5450741,28.5999005 C33.7876078,28.1811801 34.0610919,27.7810464 34.3632573,27.4028196 L48.7711617,9.36813835 C50.7137081,6.93661157 54.1486351,6.28753427 56.8492301,7.8416748 C59.5498251,9.39581534 60.7033451,12.6854558 59.5620137,15.5780664 L53.2850732,31.4864553 L4.2743733,31.4864553 Z"/>
  </g>
</svg>
