<svg xmlns="http://www.w3.org/2000/svg" width="64" height="64" viewBox="0 0 64 64">
  <g fill="none" fill-rule="evenodd">
    <rect width="64" height="64"/>
    <path fill="#757575" d="M58.303614,28.8888889 L58.0659134,28.8888889 C57.5136286,28.8888889 57.0659134,28.4411736 57.0659134,27.8888889 L57.0659134,24 C57.0659134,22.5272407 55.872006,21.3333333 54.3992467,21.3333333 L42.8888889,21.3333333 C41.4161296,21.3333333 40.2222222,22.5272407 40.2222222,24 L40.2222222,27.8888889 C40.2222222,28.4411736 39.774507,28.8888889 39.2222222,28.8888889 L35.3333333,28.8888889 C33.860574,28.8888889 32.6666667,30.0827962 32.6666667,31.5555556 L32.6666667,43.0659134 C32.6666667,44.5386727 33.860574,45.73258 35.3333333,45.73258 L39.2222222,45.73258 C39.774507,45.73258 40.2222222,46.1802953 40.2222222,46.73258 L40.2222222,50.3137924 C40.2222222,50.7228369 40.3143198,51.1103708 40.4789101,51.4567894 C38.0531291,53.0776748 35.3910995,54.6025925 32.4941233,56 C8.97263309,44.6545336 0.939272087,24.9039548 9.08974255,13.6291363 C16.9758164,2.72290395 32.4946201,9.15847541 32.4946201,20.2335218 C32.4946201,9.15847541 48.0124303,2.72343315 55.8973865,13.6291363 C58.9342324,17.8301069 59.7242933,23.2077587 58.303614,28.8888889 Z M55.2881356,30.6666667 L61.6471257,30.6666667 C62.1380455,30.6666667 62.5360146,31.0646358 62.5360146,31.5555556 L62.5360146,43.0659134 C62.5360146,43.5568331 62.1380455,43.9548023 61.6471257,43.9548023 L55.2881356,43.9548023 L55.2881356,50.3137924 C55.2881356,50.8047122 54.8901665,51.2026813 54.3992467,51.2026813 L42.8888889,51.2026813 C42.3979691,51.2026813 42,50.8047122 42,50.3137924 L42,43.9548023 L35.3333333,43.9548023 C34.8424136,43.9548023 34.4444444,43.5568331 34.4444444,43.0659134 L34.4444444,31.5555556 C34.4444444,31.0646358 34.8424136,30.6666667 35.3333333,30.6666667 L42,30.6666667 L42,24 C42,23.5090802 42.3979691,23.1111111 42.8888889,23.1111111 L54.3992467,23.1111111 C54.8901665,23.1111111 55.2881356,23.5090802 55.2881356,24 L55.2881356,30.6666667 Z"/>
  </g>
</svg>
