<svg xmlns="http://www.w3.org/2000/svg" width="64" height="64" viewBox="0 0 64 64">
  <g fill="none" fill-rule="evenodd">
    <rect width="64" height="64"/>
    <path fill="#757575" fill-rule="nonzero" d="M37.6669643,25.3333274 L37.6669643,22.6667083 L39.0003363,22.6667083 C39.7373347,22.6667083 40.3337083,22.0703347 40.3337083,21.3333363 L40.3337083,13.3333542 C40.3337083,12.8281053 40.048584,12.3672313 39.59671,12.1406068 C38.1644632,11.4244834 36.8115912,7.57549202 36.3075923,5.07162261 C36.1825926,4.449249 35.6357188,4 35.0003452,4 L29.6669821,4 C29.0316086,4 28.4847348,4.449249 28.3597351,5.07162261 C27.8584862,7.57424202 26.5081142,11.4218584 25.0706174,12.1406068 C24.6187434,12.3672313 24.333619,12.8281053 24.333619,13.3333542 L24.333619,21.3333363 C24.333619,22.0703347 24.9299927,22.6667083 25.6669911,22.6667083 L27.0003631,22.6667083 L27.0003631,25.3333274 C24.0589947,25.3333274 21.667,27.725197 21.667,30.6666905 L21.667,54.6666369 C21.667,57.6080053 24.0588697,60 27.0003631,60 L37.6669643,60 C40.6083327,60 43.0003274,57.6081303 43.0003274,54.6666369 L43.0003274,30.6666905 C43.0002024,27.725197 40.6083327,25.3333274 37.6669643,25.3333274 Z M32.3336012,52.3332671 L32.3336012,52.3332671 C27.9153331,52.3332671 24.333619,48.7515531 24.333619,44.333285 L24.333619,39.3332961 C24.333619,34.915028 27.9153331,31.333314 32.3336012,31.333314 L32.3336012,31.333314 C36.7518693,31.333314 40.3335833,34.915028 40.3335833,39.3332961 L40.3335833,44.333285 C40.3335833,48.7515531 36.7518693,52.3332671 32.3336012,52.3332671 Z"/>
  </g>
</svg>
