<svg xmlns="http://www.w3.org/2000/svg" width="64" height="64" viewBox="0 0 64 64">
  <g fill="none" fill-rule="evenodd">
    <rect width="64" height="64"/>
    <path fill="#757575" fill-rule="nonzero" d="M56.4081449,12.1835117 C55.5739068,12.593871 54.7501312,13.2311308 54.2004169,13.7140721 C54.3321447,14.1962419 54.4251607,14.6936981 54.4251607,15.2170982 C54.4251607,15.5221818 54.3041862,15.8137012 54.0891203,16.0290036 L49.6643562,20.4586355 C49.7758678,20.991186 49.8371616,21.5416066 49.8371616,22.1067754 C49.8371616,22.411859 49.716187,22.7033784 49.5011212,22.9186808 L12.7965905,59.66359 C12.5770083,59.8834137 12.283551,60 11.9855773,60 C7.55877,60 3.95641752,56.3936846 4.00039848,51.962115 C4.00039848,51.6633829 4.07287567,51.3700334 4.29245787,51.1502096 L40.9969886,14.4051928 C41.2120544,14.1898904 41.503361,14.0687828 41.8080018,14.0687828 C42.3725496,14.0687828 42.9223653,14.1302517 43.4543306,14.2417783 L47.8790948,9.81214649 C48.0941606,9.59684407 48.3854673,9.47573647 48.690108,9.47573647 C49.2122878,9.47573647 49.7087673,9.56874711 50.1898695,9.70018923 C50.6563105,9.16632322 51.2667405,8.3765043 51.6775168,7.57099351 L51.9134414,5.53418093 C51.9352034,5.34630258 51.9879064,5.16332053 52.0694145,4.99265043 C52.4774304,4.13830451 53.5007769,3.77648259 54.3551215,4.18450132 C55.5017977,4.7321275 56.5262956,5.4266539 57.4286152,6.26808053 C58.3396443,7.1176289 59.1176528,8.10902654 59.7626408,9.24227346 C59.8567824,9.40768073 59.9227226,9.58761027 59.9577558,9.77467947 C60.1320312,10.7052704 59.5189163,11.6009416 58.5883253,11.7752171 L56.4081449,12.1835117 Z M28.4482513,30.2152488 L23.5324612,35.1364468 C26.0436772,35.9206859 28.0092713,37.8884423 28.7926485,40.4024209 L33.7084387,35.4812229 L38.6510813,30.5331428 C38.4371984,27.7172026 36.2037398,25.4811794 33.390894,25.2671688 L28.4482513,30.2152488 Z M5.18659401,52.0453294 C5.97126498,55.3709387 8.58032989,57.9828738 11.9024544,58.7685779 C11.1177834,55.4427987 8.50871848,52.8308636 5.18659401,52.0453294 Z"/>
  </g>
</svg>
